# xmcd CD database file
#
# Track frame offsets:
#	150
#	21437
#	40541
#
# Disc length: 822 seconds
#
# Revision: 1
# Processed by: cddbd v1.5.2PL0 Copyright (c) Steve Scherf et al.
# Submitted via: CDex 1.70beta2
#
DISCID=1a033403
DTITLE=S_mileage - 寒いね。
DYEAR=2012
DGENRE=Hello!Project
TTITLE0=寒いね。
TTITLE1=私、ちょいとカワイイ裏番長 
TTITLE2=寒いね。 (Instrumental)
EXTD=YEAR: 2012
EXTT0=
EXTT1=
EXTT2=
PLAYORDER=
